<?xml version="1.0" standalone="no"?>
<!DOCTYPE svg PUBLIC "-//W3C//DTD SVG 20010904//EN"
 "http://www.w3.org/TR/2001/REC-SVG-20010904/DTD/svg10.dtd">
<svg version="1.0" xmlns="http://www.w3.org/2000/svg"
 width="135.000000pt" height="145.000000pt" viewBox="0 0 135.000000 145.000000"
 preserveAspectRatio="xMidYMid meet">
<metadata>
Created by potrace 1.16, written by Peter Selinger 2001-2019
</metadata>
<g transform="translate(0.000000,145.000000) scale(0.100000,-0.100000)"
fill="#000000" stroke="none">
<path d="M618 1278 c-16 -5 -28 -15 -28 -21 0 -8 4 -7 12 1 7 7 16 12 21 12 5
0 -6 -12 -23 -27 -28 -23 -32 -31 -27 -65 4 -27 2 -36 -6 -31 -7 3 -3 -3 7
-15 23 -26 34 -30 15 -4 -13 15 -12 16 3 3 23 -17 16 -26 -40 -55 -59 -30
-141 -116 -178 -187 -27 -49 -29 -63 -29 -159 0 -100 2 -108 32 -164 18 -33
31 -61 29 -64 -7 -7 -77 18 -125 44 -48 27 -55 29 -46 14 10 -16 -1 -11 -16 7
-12 14 -12 16 1 9 19 -9 -46 50 -78 72 -20 13 -25 13 -32 2 -6 -9 5 -33 31
-72 22 -32 42 -58 45 -58 2 0 -14 27 -36 60 -22 33 -38 60 -36 60 3 0 29 -35
57 -77 29 -42 69 -96 88 -119 20 -22 11 -16 -19 15 -30 31 -48 47 -40 36 40
-58 149 -156 124 -113 -4 8 -3 10 2 5 5 -5 9 -14 9 -20 0 -5 6 -12 14 -15 9
-3 11 0 6 8 -5 9 -4 11 4 6 6 -4 9 -12 5 -17 -7 -12 84 -54 166 -75 92 -23
203 -15 300 23 44 17 74 35 72 42 -1 7 2 10 8 6 12 -8 63 22 56 33 -2 4 2 18
9 31 11 21 10 29 -6 55 -10 18 -32 45 -49 61 -16 16 -30 33 -30 39 0 5 16 -6
35 -24 44 -42 92 -136 101 -196 10 -69 21 -60 27 23 10 139 -21 233 -108 317
-27 28 -44 46 -36 42 11 -7 12 -2 6 30 -4 21 -11 46 -16 54 -10 16 -9 4 6 -47
l6 -22 -56 25 c-31 14 -59 24 -61 21 -3 -3 11 -10 30 -17 20 -6 38 -15 41 -20
3 -4 -19 1 -47 12 -56 21 -133 18 -155 -7 -5 -4 -2 -5 6 0 11 6 13 4 6 -11 -8
-19 -9 -41 -2 -82 3 -22 33 -51 52 -51 6 -1 -1 8 -15 19 l-25 20 30 -10 c17
-6 50 -15 74 -21 23 -6 41 -12 39 -14 -2 -3 -21 0 -42 6 -21 6 -40 8 -42 6 -3
-2 16 -10 42 -16 54 -14 49 -27 -15 -42 -39 -9 -89 -3 -135 17 -15 5 -17 4
-11 -6 6 -9 4 -11 -4 -6 -7 5 -10 10 -7 13 3 3 -6 19 -19 35 -35 42 -50 103
-37 158 13 58 7 65 -8 9 -14 -49 -6 -100 21 -149 l19 -35 -20 23 c-19 23 -40
81 -40 112 0 28 20 86 36 105 8 11 12 13 8 5 -4 -8 5 -4 19 9 15 13 24 27 22
32 -3 4 0 11 6 15 8 5 9 3 4 -6 -6 -10 -4 -11 11 -6 70 30 118 30 188 0 15 -5
17 -4 11 6 -5 9 -4 11 4 6 6 -4 9 -11 6 -15 -2 -5 8 -19 22 -32 l27 -24 -18
30 -17 30 25 -30 c26 -30 52 -116 41 -135 -3 -5 0 -10 9 -10 19 0 71 -67 97
-126 12 -26 27 -79 34 -118 7 -39 14 -59 14 -44 1 15 -4 50 -10 77 -9 43 -8
58 12 110 18 50 21 75 17 143 -5 98 -33 161 -106 242 l-46 51 46 -44 c113
-107 147 -257 93 -416 -3 -11 2 -6 12 10 14 24 18 51 18 135 0 96 -2 110 -29
159 -49 94 -167 204 -198 185 -7 -5 -8 -3 -3 6 6 9 2 10 -15 5 l-23 -7 21 23
c27 28 20 39 -9 13 -18 -16 -34 -19 -113 -16 -68 3 -102 0 -130 -12 -52 -22
-58 -20 -17 5 29 18 50 21 140 21 95 -1 108 1 129 21 13 12 26 20 29 17 3 -3
9 5 14 18 5 12 6 22 3 22 -2 0 -9 -10 -14 -22 -8 -21 -9 -20 -9 9 -1 17 -4 40
-7 50 -3 10 2 7 10 -7 17 -28 22 -19 5 11 -5 11 -14 17 -18 14 -5 -2 -16 6
-25 20 -21 33 -56 32 -96 -1 l-31 -27 -23 22 c-24 23 -42 28 -30 9 5 -8 2 -9
-10 -5 -10 4 -21 7 -24 7 -4 0 0 5 8 10 19 12 3 11 -32 -2z"/>
</g>
</svg>
